<?xml version="1.0" encoding="UTF-8"?>
<!DOCTYPE svg PUBLIC "-//W3C//DTD SVG 1.1//EN" "http://www.w3.org/Graphics/SVG/1.1/DTD/svg11.dtd">
<!-- Creator: CorelDRAW X7 -->
<svg xmlns="http://www.w3.org/2000/svg" xml:space="preserve" width="0.763882in" height="0.555551in" version="1.1" style="shape-rendering:geometricPrecision; text-rendering:geometricPrecision; image-rendering:optimizeQuality; fill-rule:evenodd; clip-rule:evenodd"
viewBox="0 0 764 556"
 xmlns:xlink="http://www.w3.org/1999/xlink"
 enable-background="new 0 0 65 65">
 <defs>
  <style type="text/css">
   <![CDATA[
    .fil0 {fill:#414042}
   ]]>
  </style>
 </defs>
 <g id="Layer_x0020_1">
  <metadata id="CorelCorpID_0Corel-Layer"/>
  <g id="_2553987857552">
   <path class="fil0" d="M535 69l-306 0c-13,0 -24,11 -24,25l0 368c0,13 11,24 24,24l306 0c13,0 24,-11 24,-24l0 -368c0,-14 -11,-25 -24,-25zm14 393c0,8 -6,15 -14,15l-306 0c-7,0 -14,-7 -14,-15l0 -368c0,-8 6,-15 14,-15l306 0c7,0 14,6 14,15l0 368z"/>
   <rect class="fil0" x="345" y="123" width="169.587" height="9.52696"/>
   <rect class="fil0" x="345" y="148" width="132.748" height="9.52696"/>
   <polygon class="fil0" points="276,147 269,140 262,147 276,160 305,131 298,125 "/>
   <path class="fil0" d="M284 102c-22,0 -40,18 -40,39 0,22 18,40 40,40 21,0 39,-18 39,-40 0,-21 -18,-39 -39,-39zm0 68c-17,0 -30,-13 -30,-29 0,-17 13,-30 30,-30 16,0 30,13 30,30 0,16 -14,29 -30,29z"/>
   <rect class="fil0" x="345" y="215" width="169.587" height="9.52696"/>
   <rect class="fil0" x="345" y="240" width="132.748" height="9.52696"/>
   <polygon class="fil0" points="276,238 269,231 262,238 276,252 305,223 298,216 "/>
   <path class="fil0" d="M284 193c-22,0 -40,17 -40,39 0,22 18,39 40,39 21,0 39,-17 39,-39 0,-22 -18,-39 -39,-39zm0 69c-17,0 -30,-13 -30,-30 0,-16 13,-30 30,-30 16,0 30,14 30,30 0,17 -14,30 -30,30z"/>
   <rect class="fil0" x="345" y="398" width="169.587" height="9.52696"/>
   <rect class="fil0" x="345" y="423" width="132.748" height="9.52696"/>
   <polygon class="fil0" points="276,421 269,414 262,421 276,435 305,405 298,398 "/>
   <path class="fil0" d="M284 376c-22,0 -40,17 -40,39 0,22 18,39 40,39 21,0 39,-17 39,-39 0,-22 -18,-39 -39,-39zm0 68c-17,0 -30,-13 -30,-30 0,-16 13,-30 30,-30 16,0 30,14 30,30 0,17 -14,30 -30,30z"/>
   <rect class="fil0" x="345" y="306" width="169.587" height="9.52696"/>
   <rect class="fil0" x="345" y="331" width="132.748" height="9.52696"/>
   <path class="fil0" d="M284 284c-22,0 -40,18 -40,40 0,21 18,39 40,39 21,0 39,-18 39,-39 0,-22 -18,-40 -39,-40zm0 69c-17,0 -30,-13 -30,-29 0,-17 13,-30 30,-30 16,0 30,13 30,30 0,16 -14,29 -30,29z"/>
   <polygon class="fil0" points="294,307 284,317 274,307 267,313 277,324 267,333 274,340 284,330 294,340 300,333 291,324 300,313 "/>
  </g>
 </g>
</svg>
